<svg xmlns="http://www.w3.org/2000/svg" version="1.1" xmlns:xlink="http://www.w3.org/1999/xlink" viewBox="0 0 7.84824181213672 5.089804688977203"><g transform="matrix(1,0,0,1,0.5242185623183602,3.455966986033843)"><rect width="7.84824181213672" height="7.84824181213672" x="-0.5242185623183602" y="-4.835185547613602" fill="#225777"></rect><g clip-path="url(#SvgjsClipPath1002)"><g clip-path="url(#SvgjsClipPath10006e45c5c6-f4bb-4df9-b77a-8dbf25b1f094)"><path d=" M 4.070722225096243 -1.7658638265378725 L 4.233816422013127 -1.6117747281805257 L 3.304069233073915 -0.624438346783569 L 2.603943703879186 -1.4472437251854968 L 2.4410332844839253 -1.638689781574615 L 2.0364220100593102 -2.114189058203527 L 0.4142512407861236 -0.2567162330629569 L 0.7459529602685876 -0.2567162330629569 L 2.033932659993687 -1.7314807229469131 L 3.2945963371866096 -0.25 L 4.415455441566535 -1.4401766441267136 L 4.581155937880984 -1.2836149027511634 L 4.808188005275323 -2.035198138000389 L 4.070722225096243 -1.7658638265378725 Z" fill="#ffffff" transform="matrix(1,0,0,1,0,0)" fill-rule="nonzero"></path></g><g clip-path="url(#SvgjsClipPath10006e45c5c6-f4bb-4df9-b77a-8dbf25b1f094)"><path d=" M 1.7147612260764413 -1.0486971089744472 L 1.9898093477566978 -1.0486971089744472 L 1.9898093477566978 -0.7736489872941905 L 1.7147612260764413 -0.7736489872941905 Z" fill="#ffffff" transform="matrix(1,0,0,1,0,0)" fill-rule="nonzero"></path></g><g clip-path="url(#SvgjsClipPath10006e45c5c6-f4bb-4df9-b77a-8dbf25b1f094)"><path d=" M 2.0378086949951943 -1.0486971089744472 L 2.3128568166754504 -1.0486971089744472 L 2.3128568166754504 -0.7736489872941905 L 2.0378086949951943 -0.7736489872941905 Z" fill="#ffffff" transform="matrix(1,0,0,1,0,0)" fill-rule="nonzero"></path></g><g clip-path="url(#SvgjsClipPath10006e45c5c6-f4bb-4df9-b77a-8dbf25b1f094)"><path d=" M 1.7147612260764413 -0.7053338703926193 L 1.9898093477566978 -0.7053338703926193 L 1.9898093477566978 -0.4302857487123628 L 1.7147612260764413 -0.4302857487123628 Z" fill="#ffffff" transform="matrix(1,0,0,1,0,0)" fill-rule="nonzero"></path></g><g clip-path="url(#SvgjsClipPath10006e45c5c6-f4bb-4df9-b77a-8dbf25b1f094)"><path d=" M 2.0378086949951943 -0.7053338703926193 L 2.3128568166754504 -0.7053338703926193 L 2.3128568166754504 -0.4302857487123628 L 2.0378086949951943 -0.4302857487123628 Z" fill="#ffffff" transform="matrix(1,0,0,1,0,0)" fill-rule="nonzero"></path></g><g clip-path="url(#SvgjsClipPath10006e45c5c6-f4bb-4df9-b77a-8dbf25b1f094)"><path d=" M 2.9628779106567253 -1.3362755162199216 L 3.13519439774961 -1.5192845136617932 L 3.679092326517195 -2.096830435933844 L 3.843456259038021 -1.941538430162236 L 4.070471619384939 -2.6931049583640414 L 3.33302254625328 -2.423770646901525 L 3.4974867210586273 -2.2683951058928153 L 2.9722672713069294 -1.7107138630034913 L 1.8977201023760517 -2.931748423715483 L 0 -0.7586794728056097 L 0.3316181842453626 -0.7586794728056097 L 1.8952140452630082 -2.5491236236959707 L 2.9628779106567253 -1.3362755162199216 Z" fill="#ffffff" transform="matrix(1,0,0,1,0,0)" fill-rule="nonzero"></path></g></g><g><path d=" M 0.145751953125 0.04467773437500022 L 0.900146484375 0.8474121093750002 L 0.900146484375 0.3317871093750002 Q 0.900146484375 0.2695312500000002 0.898681640625 0.22302246093750022 Q 0.897216796875 0.17651367187500022 0.894287109375 0.14245605468750022 Q 0.891357421875 0.10839843750000022 0.8873291015625 0.08569335937500022 Q 0.88330078125 0.06298828125000022 0.87890625 0.04760742187500022 L 0.87890625 0.04467773437500022 L 1.00927734375 0.04467773437500022 L 1.00927734375 0.04760742187500022 Q 1.0048828125 0.06298828125000022 1.001220703125 0.08569335937500022 Q 0.99755859375 0.10839843750000022 0.99462890625 0.14245605468750022 Q 0.99169921875 0.17651367187500022 0.990234375 0.22302246093750022 Q 0.98876953125 0.2695312500000002 0.98876953125 0.3317871093750002 L 0.98876953125 1.1096191406250002 L 0.963134765625 1.1096191406250002 L 0.208740234375 0.3076171875000002 L 0.208740234375 0.8085937500000002 Q 0.208740234375 0.8708496093750002 0.210205078125 0.9173583984375002 Q 0.211669921875 0.9638671875000002 0.214599609375 0.9975585937500002 Q 0.217529296875 1.0312500000000002 0.22119140625 1.0539550781250002 Q 0.224853515625 1.0766601562500002 0.229248046875 1.0920410156250002 L 0.229248046875 1.0949707031250002 L 0.098876953125 1.0949707031250002 L 0.098876953125 1.0920410156250002 Q 0.103271484375 1.0766601562500002 0.1072998046875 1.0539550781250002 Q 0.111328125 1.0312500000000002 0.1142578125 0.9975585937500002 Q 0.1171875 0.9638671875000002 0.11865234375 0.9173583984375002 Q 0.1201171875 0.8708496093750002 0.1201171875 0.8085937500000002 L 0.1201171875 0.3317871093750002 Q 0.1201171875 0.2695312500000002 0.11865234375 0.22302246093750022 Q 0.1171875 0.17651367187500022 0.1142578125 0.14245605468750022 Q 0.111328125 0.10839843750000022 0.1072998046875 0.08569335937500022 Q 0.103271484375 0.06298828125000022 0.098876953125 0.04760742187500022 L 0.098876953125 0.04467773437500022 L 0.145751953125 0.04467773437500022 M 1.5483398437500002 1.1081542968750002 Q 1.4670410156250002 1.1081542968750002 1.3959960937500002 1.0825195312500002 Q 1.3249511718750002 1.0568847656250002 1.2722167968750002 1.0074462890625002 Q 1.2194824218750002 0.9580078125000002 1.1890869140625002 0.8851318359375002 Q 1.1586914062500002 0.8122558593750002 1.1586914062500002 0.7185058593750002 Q 1.1586914062500002 0.6357421875000002 1.1865234375000002 0.5650634765625002 Q 1.2143554687500002 0.4943847656250002 1.2634277343750002 0.4423828125000002 Q 1.3125000000000002 0.3903808593750002 1.3780517578125002 0.3610839843750002 Q 1.4436035156250002 0.3317871093750002 1.5197753906250002 0.3317871093750002 Q 1.5952148437500002 0.3317871093750002 1.6596679687500002 0.3577880859375002 Q 1.7241210937500002 0.3837890625000002 1.7713623046875002 0.4332275390625002 Q 1.8186035156250002 0.4826660156250002 1.8460693359375002 0.5555419921875002 Q 1.8735351562500002 0.6284179687500002 1.8757324218750002 0.7214355468750002 Q 1.7929687500000002 0.7199707031250002 1.7102050781250002 0.7192382812500002 Q 1.6274414062500002 0.7185058593750002 1.5380859375000002 0.7185058593750002 Q 1.4743652343750002 0.7185058593750002 1.4139404296875002 0.7192382812500002 Q 1.3535156250000002 0.7199707031250002 1.3051757812500002 0.7214355468750002 Q 1.3095703125000002 0.7976074218750002 1.3289794921875002 0.8591308593750002 Q 1.3483886718750002 0.9206542968750002 1.3824462890625002 0.9642333984375002 Q 1.4165039062500002 1.0078125000000002 1.4652099609375002 1.0312500000000002 Q 1.5139160156250002 1.0546875000000002 1.5754394531250002 1.0546875000000002 Q 1.6179199218750002 1.0546875000000002 1.6556396484375002 1.0447998046875002 Q 1.6933593750000002 1.0349121093750002 1.7241210937500002 1.0173339843750002 Q 1.7548828125000002 0.9997558593750002 1.7790527343750002 0.9759521484375002 Q 1.8032226562500002 0.9521484375000002 1.8200683593750002 0.9243164062500002 L 1.8288574218750002 0.9287109375000002 L 1.7746582031250002 1.0590820312500002 Q 1.7351074218750002 1.0795898437500002 1.6801757812500002 1.0938720703125002 Q 1.6252441406250002 1.1081542968750002 1.5483398437500002 1.1081542968750002 M 1.4509277343750002 0.6613769531250002 Q 1.5241699218750002 0.6613769531250002 1.5977783203125002 0.6610107421875002 Q 1.6713867187500002 0.6606445312500002 1.7314453125000002 0.6584472656250002 Q 1.7248535156250002 0.5947265625000002 1.7065429687500002 0.5441894531250002 Q 1.6882324218750002 0.4936523437500002 1.6596679687500002 0.4584960937500002 Q 1.6311035156250002 0.4233398437500002 1.5922851562500002 0.4042968750000002 Q 1.5534667968750002 0.3852539062500002 1.5065917968750002 0.3852539062500002 Q 1.4641113281250002 0.3852539062500002 1.4285888671875002 0.4039306640625002 Q 1.3930664062500002 0.4226074218750002 1.3666992187500002 0.4577636718750002 Q 1.3403320312500002 0.4929199218750002 1.3242187500000002 0.5438232421875002 Q 1.3081054687500002 0.5947265625000002 1.3051757812500002 0.6599121093750002 Q 1.3381347656250002 0.6613769531250002 1.3747558593750002 0.6613769531250002 Q 1.4113769531250002 0.6613769531250002 1.4509277343750002 0.6613769531250002 M 2.287353515625 0.7800292968750002 L 2.111572265625 1.0019531250000002 Q 2.10205078125 1.0144042968750002 2.0921630859375 1.0275878906250002 Q 2.082275390625 1.0407714843750002 2.0745849609375 1.0532226562500002 Q 2.06689453125 1.0656738281250002 2.0621337890625 1.0766601562500002 Q 2.057373046875 1.0876464843750002 2.057373046875 1.0949707031250002 L 1.9343261718750002 1.0949707031250002 L 1.9343261718750002 1.0920410156250002 Q 1.9460449218750002 1.0817871093750002 1.9669189453125002 1.0612792968750002 Q 1.9877929687500002 1.0407714843750002 2.01123046875 1.0107421875000002 L 2.241943359375 0.7185058593750002 L 2.015625 0.4123535156250002 Q 1.9965820312500002 0.3874511718750002 1.9782714843750002 0.3698730468750002 Q 1.9599609375000002 0.3522949218750002 1.9511718750000002 0.3479003906250002 L 1.9511718750000002 0.3449707031250002 L 2.15185546875 0.3449707031250002 Q 2.15185546875 0.3574218750000002 2.1610107421875 0.3841552734375002 Q 2.170166015625 0.4108886718750002 2.197265625 0.4482421875000002 L 2.32177734375 0.6181640625000002 L 2.4638671875 0.4379882812500002 Q 2.47265625 0.4262695312500002 2.4818115234375 0.4130859375000002 Q 2.490966796875 0.3999023437500002 2.4979248046875 0.3870849609375002 Q 2.5048828125 0.3742675781250002 2.50927734375 0.3632812500000002 Q 2.513671875 0.3522949218750002 2.513671875 0.3449707031250002 L 2.63671875 0.3449707031250002 L 2.63671875 0.3479003906250002 Q 2.62646484375 0.3559570312500002 2.611083984375 0.3713378906250002 Q 2.595703125 0.3867187500000002 2.57080078125 0.4182128906250002 L 2.366455078125 0.6782226562500002 L 2.612548828125 1.0107421875000002 Q 2.637451171875 1.0437011718750002 2.65869140625 1.0649414062500002 Q 2.679931640625 1.0861816406250002 2.689453125 1.0920410156250002 L 2.689453125 1.0949707031250002 L 2.489501953125 1.0949707031250002 Q 2.489501953125 1.0825195312500002 2.47998046875 1.0550537109375002 Q 2.470458984375 1.0275878906250002 2.44482421875 0.9916992187500002 L 2.287353515625 0.7800292968750002 M 2.754638671875 0.7185058593750002 Q 2.754638671875 0.6357421875000002 2.785400390625 0.5650634765625002 Q 2.816162109375 0.4943847656250002 2.8699951171875 0.4423828125000002 Q 2.923828125 0.3903808593750002 2.9970703125 0.3610839843750002 Q 3.0703125 0.3317871093750002 3.154541015625 0.3317871093750002 Q 3.2373046875 0.3317871093750002 3.3101806640625 0.3592529296875002 Q 3.383056640625 0.3867187500000002 3.437255859375 0.4372558593750002 Q 3.491455078125 0.4877929687500002 3.5225830078125 0.5603027343750002 Q 3.5537109375 0.6328125000000002 3.5537109375 0.7229003906250002 Q 3.5537109375 0.7983398437500002 3.52734375 0.8679199218750002 Q 3.5009765625 0.9375000000000002 3.44970703125 0.9909667968750002 Q 3.3984375 1.0444335937500002 3.3240966796875 1.0762939453125002 Q 3.249755859375 1.1081542968750002 3.153076171875 1.1081542968750002 Q 3.071044921875 1.1081542968750002 2.99853515625 1.0810546875000002 Q 2.926025390625 1.0539550781250002 2.871826171875 1.0034179687500002 Q 2.817626953125 0.9528808593750002 2.7861328125 0.8807373046875002 Q 2.754638671875 0.8085937500000002 2.754638671875 0.7185058593750002 M 3.169921875 1.0546875000000002 Q 3.221923828125 1.0546875000000002 3.2655029296875 1.0341796875000002 Q 3.30908203125 1.0136718750000002 3.340576171875 0.9748535156250002 Q 3.3720703125 0.9360351562500002 3.3896484375 0.8803710937500002 Q 3.4072265625 0.8247070312500002 3.4072265625 0.7543945312500002 Q 3.4072265625 0.6752929687500002 3.390380859375 0.6075439453125002 Q 3.37353515625 0.5397949218750002 3.3402099609375 0.4903564453125002 Q 3.306884765625 0.4409179687500002 3.25634765625 0.4130859375000002 Q 3.205810546875 0.3852539062500002 3.138427734375 0.3852539062500002 Q 3.08642578125 0.3852539062500002 3.043212890625 0.4053955078125002 Q 3 0.4255371093750002 2.9681396484375 0.4636230468750002 Q 2.936279296875 0.5017089843750002 2.918701171875 0.5570068359375002 Q 2.901123046875 0.6123046875000002 2.901123046875 0.6826171875000002 Q 2.901123046875 0.7617187500000002 2.9183349609375 0.8298339843750002 Q 2.935546875 0.8979492187500002 2.96923828125 0.9481201171875002 Q 3.0029296875 0.9982910156250002 3.0531005859375 1.0264892578125002 Q 3.103271484375 1.0546875000000002 3.169921875 1.0546875000000002 M 3.730224609375 0.3317871093750002 Q 3.730224609375 0.2695312500000002 3.728759765625 0.22302246093750022 Q 3.727294921875 0.17651367187500022 3.724365234375 0.14245605468750022 Q 3.721435546875 0.10839843750000022 3.7174072265625 0.08569335937500022 Q 3.71337890625 0.06298828125000022 3.708984375 0.04760742187500022 L 3.708984375 0.04467773437500022 Q 3.7236328125 0.04541015625000022 3.73974609375 0.04541015625000022 Q 3.753662109375 0.04614257812500022 3.7708740234375 0.04614257812500022 Q 3.7880859375 0.04614257812500022 3.806396484375 0.04614257812500022 Q 3.832763671875 0.04614257812500022 3.8778076171875 0.04101562500000022 Q 3.9228515625 0.03588867187500022 3.993896484375 0.03588867187500022 Q 4.059814453125 0.03588867187500022 4.115478515625 0.05310058593750022 Q 4.171142578125 0.07031250000000022 4.2117919921875 0.10253906250000022 Q 4.25244140625 0.13476562500000022 4.2755126953125 0.18200683593750022 Q 4.298583984375 0.22924804687500022 4.298583984375 0.2893066406250002 Q 4.298583984375 0.3398437500000002 4.28466796875 0.3797607421875002 Q 4.270751953125 0.4196777343750002 4.2454833984375 0.4493408203125002 Q 4.22021484375 0.4790039062500002 4.1846923828125 0.4991455078125002 Q 4.149169921875 0.5192871093750002 4.106689453125 0.5310058593750002 Q 4.1689453125 0.5405273437500002 4.22021484375 0.5628662109375002 Q 4.271484375 0.5852050781250002 4.3084716796875 0.6188964843750002 Q 4.345458984375 0.6525878906250002 4.3656005859375 0.6976318359375002 Q 4.3857421875 0.7426757812500002 4.3857421875 0.7976074218750002 Q 4.3857421875 0.9521484375000002 4.283935546875 1.0294189453125002 Q 4.18212890625 1.1066894531250002 3.979248046875 1.1066894531250002 Q 3.957275390625 1.1066894531250002 3.927978515625 1.1048583984375002 Q 3.898681640625 1.1030273437500002 3.8682861328125 1.1008300781250002 Q 3.837890625 1.0986328125000002 3.80859375 1.0968017578125002 Q 3.779296875 1.0949707031250002 3.75732421875 1.0949707031250002 L 3.708984375 1.0949707031250002 L 3.708984375 1.0920410156250002 Q 3.71337890625 1.0766601562500002 3.7174072265625 1.0539550781250002 Q 3.721435546875 1.0312500000000002 3.724365234375 0.9975585937500002 Q 3.727294921875 0.9638671875000002 3.728759765625 0.9173583984375002 Q 3.730224609375 0.8708496093750002 3.730224609375 0.8085937500000002 L 3.730224609375 0.3317871093750002 M 3.9990234375 0.5756835937500002 Q 3.94921875 0.5756835937500002 3.91552734375 0.5793457031250002 Q 3.8818359375 0.5830078125000002 3.863525390625 0.5866699218750002 L 3.863525390625 0.8085937500000002 Q 3.863525390625 0.8942871093750002 3.866455078125 0.9499511718750002 Q 3.869384765625 1.0056152343750002 3.87451171875 1.0407714843750002 Q 3.90234375 1.0444335937500002 3.93017578125 1.0473632812500002 Q 3.9580078125 1.0502929687500002 3.974853515625 1.0502929687500002 Q 4.11181640625 1.0502929687500002 4.1751708984375 0.9891357421875002 Q 4.238525390625 0.9279785156250002 4.238525390625 0.8012695312500002 Q 4.238525390625 0.7514648437500002 4.2235107421875 0.7100830078125002 Q 4.20849609375 0.6687011718750002 4.1788330078125 0.6386718750000002 Q 4.149169921875 0.6086425781250002 4.1041259765625 0.5921630859375002 Q 4.05908203125 0.5756835937500002 3.9990234375 0.5756835937500002 M 3.863525390625 0.5207519531250002 Q 3.884033203125 0.5229492187500002 3.900146484375 0.5233154296875002 Q 3.916259765625 0.5236816406250002 3.9345703125 0.5236816406250002 Q 3.984375 0.5236816406250002 4.025390625 0.5093994140625002 Q 4.06640625 0.4951171875000002 4.0953369140625 0.4665527343750002 Q 4.124267578125 0.4379882812500002 4.140380859375 0.3951416015625002 Q 4.156494140625 0.3522949218750002 4.156494140625 0.2951660156250002 Q 4.156494140625 0.24755859375000022 4.144775390625 0.20874023437500022 Q 4.133056640625 0.16992187500000022 4.1099853515625 0.14245605468750022 Q 4.0869140625 0.11499023437500022 4.05322265625 0.10034179687500022 Q 4.01953125 0.08569335937500022 3.976318359375 0.08569335937500022 Q 3.948486328125 0.08569335937500022 3.9276123046875 0.08789062500000022 Q 3.90673828125 0.09008789062500022 3.89208984375 0.09301757812500022 Q 3.875244140625 0.09594726562500022 3.863525390625 0.10034179687500022 L 3.863525390625 0.5207519531250002 M 4.499267578125 0.8789062500000002 Q 4.499267578125 0.8210449218750002 4.5230712890625 0.7785644531250002 Q 4.546875 0.7360839843750002 4.58642578125 0.7060546875000002 Q 4.6259765625 0.6760253906250002 4.676513671875 0.6573486328125002 Q 4.72705078125 0.6386718750000002 4.78125 0.6280517578125002 Q 4.83544921875 0.6174316406250002 4.88818359375 0.6134033203125002 Q 4.94091796875 0.6093750000000002 4.98486328125 0.6086425781250002 L 4.98486328125 0.5712890625000002 Q 4.98486328125 0.5229492187500002 4.972412109375 0.4877929687500002 Q 4.9599609375 0.4526367187500002 4.937255859375 0.4295654296875002 Q 4.91455078125 0.4064941406250002 4.8826904296875 0.3951416015625002 Q 4.850830078125 0.3837890625000002 4.812744140625 0.3837890625000002 Q 4.786376953125 0.3837890625000002 4.7607421875 0.3881835937500002 Q 4.735107421875 0.3925781250000002 4.7076416015625 0.4028320312500002 Q 4.68017578125 0.4130859375000002 4.6497802734375 0.4306640625000002 Q 4.619384765625 0.4482421875000002 4.584228515625 0.4753417968750002 L 4.576904296875 0.4709472656250002 L 4.626708984375 0.3676757812500002 Q 4.65087890625 0.3566894531250002 4.67431640625 0.3497314453125002 Q 4.69775390625 0.3427734375000002 4.721923828125 0.3383789062500002 Q 4.74609375 0.3339843750000002 4.7713623046875 0.3321533203125002 Q 4.796630859375 0.3303222656250002 4.824462890625 0.3303222656250002 Q 4.9013671875 0.3303222656250002 4.9559326171875 0.3489990234375002 Q 5.010498046875 0.3676757812500002 5.0452880859375 0.4002685546875002 Q 5.080078125 0.4328613281250002 5.09619140625 0.4764404296875002 Q 5.1123046875 0.5200195312500002 5.1123046875 0.5698242187500002 L 5.1123046875 0.8085937500000002 Q 5.1123046875 0.8708496093750002 5.1141357421875 0.9173583984375002 Q 5.115966796875 0.9638671875000002 5.1185302734375 0.9975585937500002 Q 5.12109375 1.0312500000000002 5.1251220703125 1.0539550781250002 Q 5.129150390625 1.0766601562500002 5.133544921875 1.0920410156250002 L 5.133544921875 1.0949707031250002 L 4.9716796875 1.0949707031250002 L 4.9716796875 1.0920410156250002 Q 4.975341796875 1.0803222656250002 4.9771728515625 1.0656738281250002 Q 4.97900390625 1.0510253906250002 4.98046875 1.0305175781250002 Q 4.965087890625 1.0437011718750002 4.9442138671875 1.0576171875000002 Q 4.92333984375 1.0715332031250002 4.8966064453125 1.0828857421875002 Q 4.869873046875 1.0942382812500002 4.8372802734375 1.1011962890625002 Q 4.8046875 1.1081542968750002 4.765869140625 1.1081542968750002 Q 4.638427734375 1.1081542968750002 4.56884765625 1.0484619140625002 Q 4.499267578125 0.9887695312500002 4.499267578125 0.8789062500000002 M 4.98486328125 0.6657714843750002 Q 4.918212890625 0.6665039062500002 4.856689453125 0.6734619140625002 Q 4.795166015625 0.6804199218750002 4.7479248046875 0.7023925781250002 Q 4.70068359375 0.7243652343750002 4.6724853515625 0.7650146484375002 Q 4.644287109375 0.8056640625000002 4.644287109375 0.8730468750000002 Q 4.644287109375 0.9594726562500002 4.6875 1.0048828125000002 Q 4.730712890625 1.0502929687500002 4.806884765625 1.0502929687500002 Q 4.842041015625 1.0502929687500002 4.8709716796875 1.0404052734375002 Q 4.89990234375 1.0305175781250002 4.9222412109375 1.0155029296875002 Q 4.944580078125 1.0004882812500002 4.9599609375 0.9825439453125002 Q 4.975341796875 0.9645996093750002 4.9833984375 0.9477539062500002 Q 4.98486328125 0.9199218750000002 4.98486328125 0.8858642578125002 Q 4.98486328125 0.8518066406250002 4.98486328125 0.8085937500000002 L 4.98486328125 0.6657714843750002 M 5.836669921875 0.6013183593750002 Q 5.836669921875 0.5046386718750002 5.7978515625 0.4592285156250002 Q 5.759033203125 0.4138183593750002 5.69384765625 0.4138183593750002 Q 5.67041015625 0.4138183593750002 5.64111328125 0.4237060546875002 Q 5.61181640625 0.4335937500000002 5.5810546875 0.4500732421875002 Q 5.55029296875 0.4665527343750002 5.51953125 0.4885253906250002 Q 5.48876953125 0.5104980468750002 5.461669921875 0.5354003906250002 L 5.460205078125 0.6313476562500002 L 5.460205078125 0.8085937500000002 Q 5.460205078125 0.8708496093750002 5.461669921875 0.9173583984375002 Q 5.463134765625 0.9638671875000002 5.466064453125 0.9975585937500002 Q 5.468994140625 1.0312500000000002 5.47265625 1.0539550781250002 Q 5.476318359375 1.0766601562500002 5.480712890625 1.0920410156250002 L 5.480712890625 1.0949707031250002 L 5.3115234375 1.0949707031250002 L 5.3115234375 1.0920410156250002 Q 5.31591796875 1.0766601562500002 5.3199462890625 1.0539550781250002 Q 5.323974609375 1.0312500000000002 5.3265380859375 0.9975585937500002 Q 5.3291015625 0.9638671875000002 5.3309326171875 0.9173583984375002 Q 5.332763671875 0.8708496093750002 5.332763671875 0.8085937500000002 L 5.332763671875 0.6313476562500002 Q 5.332763671875 0.5690917968750002 5.3309326171875 0.5225830078125002 Q 5.3291015625 0.4760742187500002 5.3265380859375 0.4423828125000002 Q 5.323974609375 0.4086914062500002 5.3199462890625 0.3859863281250002 Q 5.31591796875 0.3632812500000002 5.3115234375 0.3479003906250002 L 5.3115234375 0.3449707031250002 L 5.480712890625 0.3449707031250002 L 5.480712890625 0.3479003906250002 Q 5.474853515625 0.3662109375000002 5.4715576171875 0.3944091796875002 Q 5.46826171875 0.4226074218750002 5.464599609375 0.4680175781250002 Q 5.49462890625 0.4431152343750002 5.5294189453125 0.4182128906250002 Q 5.564208984375 0.3933105468750002 5.6015625 0.3739013671875002 Q 5.638916015625 0.3544921875000002 5.677734375 0.3424072265625002 Q 5.716552734375 0.3303222656250002 5.75390625 0.3303222656250002 Q 5.81103515625 0.3303222656250002 5.8509521484375 0.3500976562500002 Q 5.890869140625 0.3698730468750002 5.9161376953125 0.4020996093750002 Q 5.94140625 0.4343261718750002 5.9527587890625 0.4757080078125002 Q 5.964111328125 0.5170898437500002 5.964111328125 0.5595703125000002 L 5.964111328125 0.8085937500000002 Q 5.964111328125 0.8708496093750002 5.965576171875 0.9173583984375002 Q 5.967041015625 0.9638671875000002 5.969970703125 0.9975585937500002 Q 5.972900390625 1.0312500000000002 5.9765625 1.0539550781250002 Q 5.980224609375 1.0766601562500002 5.984619140625 1.0920410156250002 L 5.984619140625 1.0949707031250002 L 5.8154296875 1.0949707031250002 L 5.8154296875 1.0920410156250002 Q 5.81982421875 1.0766601562500002 5.8238525390625 1.0539550781250002 Q 5.827880859375 1.0312500000000002 5.8304443359375 0.9975585937500002 Q 5.8330078125 0.9638671875000002 5.8348388671875 0.9173583984375002 Q 5.836669921875 0.8708496093750002 5.836669921875 0.8085937500000002 L 5.836669921875 0.6013183593750002 M 6.183837890625 0.2863769531250002 Q 6.183837890625 0.22412109375000022 6.1820068359375 0.17761230468750022 Q 6.18017578125 0.13110351562500022 6.1776123046875 0.09741210937500022 Q 6.175048828125 0.06372070312500022 6.1710205078125 0.04101562500000022 Q 6.1669921875 0.018310546875000222 6.16259765625 0.002929687500000222 L 6.16259765625 2.220446049250313e-16 L 6.331787109375 2.220446049250313e-16 L 6.331787109375 0.002929687500000222 Q 6.327392578125 0.018310546875000222 6.32373046875 0.04101562500000022 Q 6.320068359375 0.06372070312500022 6.317138671875 0.09741210937500022 Q 6.314208984375 0.13110351562500022 6.312744140625 0.17761230468750022 Q 6.311279296875 0.22412109375000022 6.311279296875 0.2863769531250002 L 6.311279296875 0.6511230468750002 L 6.55078125 0.4365234375000002 Q 6.61376953125 0.3815917968750002 6.61376953125 0.3449707031250002 L 6.78369140625 0.3449707031250002 L 6.78369140625 0.3479003906250002 Q 6.7646484375 0.3537597656250002 6.7474365234375 0.3629150390625002 Q 6.730224609375 0.3720703125000002 6.7130126953125 0.3845214843750002 Q 6.69580078125 0.3969726562500002 6.6771240234375 0.4127197265625002 Q 6.658447265625 0.4284667968750002 6.636474609375 0.4482421875000002 L 6.421875 0.6437988281250002 L 6.71630859375 0.9916992187500002 Q 6.7294921875 1.0078125000000002 6.744873046875 1.0242919921875002 Q 6.76025390625 1.0407714843750002 6.775634765625 1.0546875000000002 Q 6.791015625 1.0686035156250002 6.8056640625 1.0788574218750002 Q 6.8203125 1.0891113281250002 6.832763671875 1.0920410156250002 L 6.832763671875 1.0949707031250002 L 6.620361328125 1.0949707031250002 Q 6.620361328125 1.0759277343750002 6.6104736328125 1.0554199218750002 Q 6.6005859375 1.0349121093750002 6.574951171875 1.0034179687500002 L 6.311279296875 0.6899414062500002 L 6.311279296875 0.8085937500000002 Q 6.311279296875 0.8708496093750002 6.312744140625 0.9173583984375002 Q 6.314208984375 0.9638671875000002 6.317138671875 0.9975585937500002 Q 6.320068359375 1.0312500000000002 6.32373046875 1.0539550781250002 Q 6.327392578125 1.0766601562500002 6.331787109375 1.0920410156250002 L 6.331787109375 1.0949707031250002 L 6.16259765625 1.0949707031250002 L 6.16259765625 1.0920410156250002 Q 6.1669921875 1.0766601562500002 6.1710205078125 1.0539550781250002 Q 6.175048828125 1.0312500000000002 6.1776123046875 0.9975585937500002 Q 6.18017578125 0.9638671875000002 6.1820068359375 0.9173583984375002 Q 6.183837890625 0.8708496093750002 6.183837890625 0.8085937500000002 L 6.183837890625 0.2863769531250002" fill="#ffffff" fill-rule="nonzero"></path></g><g></g></g><defs><clipPath id="SvgjsClipPath1002"><path d=" M 0 -2.931748423715483 h 4.808188005275323 v 2.681748423715483 h -4.808188005275323 Z"></path></clipPath><clipPath id="SvgjsClipPath10006e45c5c6-f4bb-4df9-b77a-8dbf25b1f094"><path d=" M 0 -2.931748423715483 L 4.808188005275323 -2.931748423715483 L 4.808188005275323 -0.25 L 0 -0.25 Z"></path></clipPath></defs></svg>